<?xml version="1.0" encoding="UTF-8" standalone="no"?>
<!-- Created with Inkscape (http://www.inkscape.org/) -->

<svg
   version="1.1"
   id="svg2"
   width="793.70667"
   height="1122.52"
   viewBox="0 0 793.70667 1122.52"
   sodipodi:docname="oe26_2_export_final-01.eps"
   xmlns:inkscape="http://www.inkscape.org/namespaces/inkscape"
   xmlns:sodipodi="http://sodipodi.sourceforge.net/DTD/sodipodi-0.dtd"
   xmlns="http://www.w3.org/2000/svg"
   xmlns:svg="http://www.w3.org/2000/svg">
  <defs
     id="defs6" />
  <sodipodi:namedview
     id="namedview4"
     pagecolor="#ffffff"
     bordercolor="#000000"
     borderopacity="0.25"
     inkscape:showpageshadow="2"
     inkscape:pageopacity="0.0"
     inkscape:pagecheckerboard="0"
     inkscape:deskcolor="#d1d1d1" />
  <g
     id="g8"
     inkscape:groupmode="layer"
     inkscape:label="ink_ext_XXXXXX"
     transform="matrix(1.3333333,0,0,-1.3333333,0,1122.52)">
    <g
       id="g10"
       transform="scale(0.1)">
      <path
         d="m 2460.59,6721.01 c 0.78,36.88 -1.58,74.2 -7.06,111.88 -5.52,37.69 -15.72,70.67 -30.62,98.93 -14.94,28.27 -37.32,42.4 -67.13,42.4 -32.97,0 -58.52,-13.77 -76.55,-41.22 -18.08,-27.49 -31.43,-59.7 -40.04,-96.57 -8.66,-36.92 -13.77,-74.2 -15.32,-111.89 -1.58,-37.68 -2.35,-66.76 -2.35,-87.15 0,-139.78 -1.59,-278.34 -4.71,-415.73 -3.16,-137.42 -4.71,-275.99 -4.71,-415.73 0,-45.57 0.77,-91.09 2.35,-136.62 1.54,-45.56 2.36,-91.09 2.36,-136.61 0,-42.4 6.66,-76.19 20.02,-101.29 13.32,-25.13 44.35,-37.68 93.04,-37.68 47.11,0 77.72,13.32 91.86,40.04 14.13,26.68 21.2,59.66 21.2,98.93 0,185.27 2.72,369.39 8.24,552.34 5.49,182.92 8.25,367.05 8.25,552.35 0,18.85 0.36,46.71 1.17,83.62 z m 94.22,-615.87 c -5.52,-190.57 -8.24,-382.28 -8.24,-575.17 0,-37.65 -2.36,-74.12 -7.07,-109.38 -4.71,-35.29 -14.54,-66.65 -29.44,-94.1 -14.94,-27.46 -36.14,-49.43 -63.6,-65.88 -27.49,-16.49 -63.22,-24.7 -107.17,-24.7 -56.53,0 -100.91,13.69 -133.09,41.15 -32.19,27.46 -55.75,62.34 -70.65,104.71 -14.94,42.32 -24.73,88.21 -29.45,137.61 -4.71,49.38 -7.88,96.05 -9.42,139.99 -1.58,26.65 -2.35,53.29 -2.35,79.98 0,28.19 0,55.64 0,82.33 0,156.82 3.12,312.87 9.42,468.14 6.25,155.24 9.42,311.29 9.42,468.14 0,39.2 2.72,79.98 8.25,122.34 5.47,42.32 16.85,81.15 34.14,116.44 17.27,35.26 40.82,64.3 70.67,87.04 29.81,22.75 69.85,34.12 120.13,34.12 53.37,0 94.58,-15.71 123.66,-47.07 29.03,-31.36 50.64,-69.41 64.77,-114.09 14.14,-44.68 22.38,-92.53 24.73,-143.5 2.36,-50.97 3.54,-95.28 3.54,-132.9 0,-192.92 -2.76,-384.63 -8.25,-575.2"
         style="fill:#231f20;fill-opacity:1;fill-rule:nonzero;stroke:none"
         id="path12" />
      <path
         d="m 3850.61,6675.26 c -58.11,0 -115.41,-0.81 -171.94,-2.35 -56.54,-1.55 -113.88,-3.9 -171.95,-7.03 0,-217.95 0.37,-434.73 1.18,-650.32 0.77,-215.6 -3.54,-432.37 -12.95,-650.28 h 204.91 c 21.98,0 43.58,0.77 64.78,2.35 21.2,1.55 42.76,2.36 64.78,2.36 6.25,0 11.37,-0.41 15.31,-1.18 3.9,-0.81 5.88,-5.12 5.88,-12.95 v -119.95 c -65.95,7.84 -131.9,9.42 -197.85,4.71 -65.95,-4.71 -131.91,-7.06 -197.86,-7.06 -22.01,0 -38.09,1.18 -48.29,3.53 -10.23,2.36 -17.3,7.03 -21.19,14.09 -3.94,7.07 -5.89,16.09 -5.89,27.09 0,12.52 0,29.01 0,49.39 0,117.63 1.95,234.07 5.89,349.34 3.89,115.27 5.89,231.72 5.89,349.34 0,147.4 -2.36,292.85 -7.07,436.38 -4.71,143.5 -7.06,288.95 -7.06,436.38 0,4.71 0,17.27 0,37.65 0,20.39 0,42.33 0,65.85 0,23.51 0.8,44.68 2.35,63.52 1.54,18.8 3.9,29.77 7.06,32.94 3.14,3.13 18.44,5.88 45.94,8.24 27.45,2.36 57.3,4.31 89.5,5.89 32.17,1.54 62.79,2.72 91.86,3.54 29.04,0.77 47.48,1.17 55.36,1.17 4.7,0 14.9,0 30.61,0 17.27,0 35.34,-0.4 54.18,-1.17 18.84,-0.82 36.11,-2.36 51.82,-4.72 15.68,-2.35 25.1,-5.11 28.26,-8.24 7.85,-7.88 12.55,-22.38 14.13,-43.58 1.55,-21.2 2.36,-36.5 2.36,-45.93 0,-4.71 0,-10.23 0,-16.49 0,-6.29 -1.58,-11 -4.71,-14.13 -12.59,-3.17 -22,-4.71 -28.26,-4.71 -31.43,0 -63.6,1.95 -96.57,5.89 -32.98,3.9 -65.96,5.89 -98.94,5.89 -45.56,0 -87.95,-5.52 -127.18,-16.49 l 14.13,-171.95 c 10.97,0 33.74,0.77 68.31,2.36 34.52,1.55 70.65,2.35 108.35,2.35 39.22,0 74.96,-1.17 107.16,-3.53 32.17,-2.35 51.42,-6.66 57.71,-12.92 0,-17.26 0.78,-34.89 2.36,-52.92 1.55,-18.03 2.36,-35.7 2.36,-52.92 0,-6.3 -1.59,-9.43 -4.72,-9.43"
         style="fill:#231f20;fill-opacity:1;fill-rule:nonzero;stroke:none"
         id="path14" />
      <path
         d="m 2634.91,2957.86 c -1.59,-14.14 -3.17,-29.08 -4.72,-44.76 -3.16,-3.16 -10.23,-5.11 -21.2,-5.88 -11.01,-0.82 -22.78,-1.58 -35.34,-2.36 -12.57,-0.81 -25.13,-1.18 -37.68,-1.18 -11,0 -18.83,0 -23.55,0 -75.37,0 -149.98,1.96 -223.77,5.89 -73.83,3.9 -147.76,5.89 -221.89,5.89 -21.67,0 -34.85,9.79 -39.56,29.44 -4.71,19.62 -7.07,38.06 -7.07,55.36 0,54.94 3.13,109.11 9.43,162.52 6.25,53.36 9.41,107.54 9.41,162.52 0,47.11 0.78,100.48 2.33,160.17 1.54,59.66 3.82,122.86 6.91,189.61 3.1,66.73 7.73,134.64 13.92,203.75 6.18,69.08 14.64,136.21 25.47,201.39 10.81,65.15 23.14,126.79 37.06,184.9 13.87,58.08 30.84,109.13 50.93,153.1 3.16,7.85 9.5,20.03 18.99,36.52 9.5,16.48 19.77,25.5 30.84,27.08 14.25,1.55 35.6,2.36 64.08,2.36 28.49,0 57.34,1.95 86.63,5.89 29.26,3.9 54.99,10.6 77.15,20.02 22.15,9.42 33.23,25.1 33.23,47.1 0,29.82 -3.94,52.6 -11.78,68.31 -7.88,15.68 -18.85,26.28 -32.98,31.8 -14.13,5.48 -31.43,8.24 -51.82,8.24 -20.42,0 -43.2,0 -68.31,0 -31.42,0 -62.04,-1.17 -91.85,-3.53 -29.85,-2.35 -59.7,-3.53 -89.51,-3.53 -12.59,0 -22.01,0.77 -28.26,2.36 l 7.06,127.19 h 120.12 c 10.97,0 32.18,0 63.61,0 32.97,0 67.49,-0.4 103.63,-1.18 36.11,-0.81 68.71,-1.99 97.86,-3.53 29.12,-1.58 47.48,-3.94 55.1,-7.07 12.14,-6.29 22.38,-19.25 30.73,-38.86 8.32,-19.66 14.76,-41.63 19.32,-65.96 4.57,-24.36 7.99,-48.28 10.27,-71.84 2.28,-23.55 3.42,-40.85 3.42,-51.81 0,-15.72 -3.13,-34.56 -9.38,-56.54 -6.25,-22 -14.43,-42.8 -24.58,-62.41 -10.16,-19.66 -23.09,-36.51 -38.68,-50.65 -15.62,-14.13 -32.8,-21.2 -51.53,-21.2 -26.58,0 -52.74,0.37 -78.51,1.18 -25.76,0.78 -51.92,1.18 -78.5,1.18 -6.26,0 -14.83,-1.18 -25.76,-3.53 -10.97,-2.36 -19.54,-5.89 -25.76,-10.6 -20.32,-17.3 -37.14,-51.82 -50.38,-103.64 -13.29,-51.82 -24.22,-113.06 -32.84,-183.73 -8.61,-70.66 -14.82,-146.03 -18.73,-226.12 -3.9,-80.09 -7.03,-156.26 -9.38,-228.47 -2.36,-72.25 -3.5,-136.62 -3.5,-193.15 0,-56.53 0,-95.8 0,-117.77 0,-17.3 -0.4,-40.85 -1.18,-70.67 -0.77,-29.84 1.18,-59.29 5.9,-88.32 4.7,-29.07 13.32,-54.18 25.9,-75.38 12.56,-21.2 32.17,-31.79 58.89,-31.79 53.36,0 106.76,2.72 160.17,8.24 53.36,5.48 106.76,8.24 160.16,8.24 7.85,0 14.91,0 21.2,0 7.84,0 15.68,-0.81 23.56,-2.35 3.13,-4.71 5.08,-11.01 5.89,-18.85 0.77,-7.88 1.18,-14.13 1.18,-18.84 0,-15.72 -0.82,-30.62 -2.35,-44.75"
         style="fill:#231f20;fill-opacity:1;fill-rule:nonzero;stroke:none"
         id="path16" />
      <path
         d="m 3795.27,3145.12 c -0.81,10.19 -1.18,20.01 -1.18,29.44 0,21.97 0,66.72 0,134.26 0,67.49 -1.18,145.63 -3.54,234.36 -2.36,88.7 -7.88,181.74 -16.49,279.12 -8.64,97.35 -21.6,186.45 -38.86,267.34 -17.3,80.86 -40.45,147.99 -69.48,201.39 -29.08,53.37 -64.78,80.09 -107.18,80.09 -17.29,0 -31.42,-1.99 -42.39,-5.89 -11.01,-3.94 -24.37,-12.18 -40.04,-24.73 -4.71,-3.17 -8.66,-20.43 -11.78,-51.82 -3.17,-31.43 -5.52,-69.49 -7.07,-114.24 -1.58,-44.75 -2.76,-94.22 -3.54,-148.39 -0.8,-54.18 -1.58,-105.63 -2.35,-154.29 -0.81,-48.69 -1.99,-92.26 -3.53,-130.72 -1.58,-38.5 -3.16,-64.78 -4.72,-78.91 v 49.46 37.7 18.83 l 2.36,7.07 c 1.55,-1.58 2.36,-3.16 2.36,-4.71 l 2.36,-28.27 c 1.54,-17.29 2.72,-35.32 3.52,-54.17 0.78,-18.84 1.96,-37.69 3.54,-56.53 4.71,-86.38 8.61,-172.35 11.78,-257.92 3.13,-85.6 4.71,-171.58 4.71,-257.92 0,-9.42 -0.41,-20.02 -1.18,-31.8 -0.8,-11.78 -0.8,-22.78 0,-32.97 0.77,-10.24 3.9,-18.85 9.42,-25.91 5.49,-7.07 15.31,-10.6 29.44,-10.6 21.97,0 43.58,0.36 64.78,1.18 21.21,0.76 42.77,1.17 64.77,1.17 h -54.17 c 18.85,0 37.69,-0.41 56.53,-1.17 18.84,-0.82 36.88,-1.18 54.17,-1.18 39.24,0 65.55,7.43 78.91,22.37 13.33,14.91 20.02,41.22 20.02,78.91 0,9.42 -0.4,19.21 -1.17,29.45 z m 108.35,-101.29 c -3.94,-33.78 -13.37,-61.24 -28.27,-82.44 -14.94,-21.2 -36.92,-36.14 -65.95,-44.75 -29.08,-8.65 -69.48,-12.96 -121.3,-12.96 h -70.67 25.91 -70.66 c -51.82,0 -93.04,3.9 -123.66,11.78 -30.63,7.84 -54.17,21.97 -70.66,42.4 -16.49,20.39 -26.72,47.47 -30.63,81.26 -3.94,33.75 -4.34,76.55 -1.18,128.37 -3.16,4.71 -5.88,20.39 -8.24,47.11 -2.36,26.68 -4.34,60.06 -5.89,100.1 -1.59,40.05 -3.16,82.82 -4.71,128.38 -1.58,45.52 -2.76,89.1 -3.53,130.72 -0.81,41.59 -1.18,77.33 -1.18,107.18 0,29.8 0,49.46 0,58.88 0,28.26 0.37,69.48 1.18,123.66 0.77,54.18 2.36,114.61 4.72,181.37 2.35,66.73 5.88,136.21 10.59,208.46 4.71,72.21 11.38,140.14 20.02,203.74 8.61,63.6 19.62,119.32 32.98,167.23 13.33,47.89 30.21,81.27 50.63,100.11 26.69,26.68 62.43,43.94 107.18,51.82 44.76,7.84 85.16,11.78 121.31,11.78 25.1,0 45.52,-0.4 61.23,-1.18 15.69,-0.81 28.27,-4.34 37.7,-10.6 9.41,-6.29 16.08,-16.49 20.01,-30.62 3.91,-14.13 5.89,-34.56 5.89,-61.24 0,-22.01 -10.23,-32.98 -30.62,-32.98 -17.29,0 -33.38,1.55 -48.28,4.72 -14.95,3.12 -30.25,4.71 -45.93,4.71 -65.95,0 -113.88,-13.77 -143.69,-41.23 -29.84,-27.49 -46.34,-74.19 -49.46,-140.14 23.56,3.12 47.11,7.06 70.66,11.77 23.56,4.72 47.11,7.07 70.67,7.07 56.53,0 100.47,-20.43 131.9,-61.24 26.69,-32.98 49.46,-81.67 68.31,-146.04 18.84,-64.41 34.15,-136.61 45.93,-216.7 11.78,-80.08 20.79,-164.51 27.08,-253.21 6.27,-88.73 10.61,-174.71 12.96,-257.92 2.35,-83.25 3.53,-159.4 3.53,-228.47 0,-69.12 0,-124.07 0,-164.88 0,-50.28 -1.98,-92.27 -5.88,-126.02"
         style="fill:#231f20;fill-opacity:1;fill-rule:nonzero;stroke:none"
         id="path18" />
      <path
         d="m 2944.15,8170.66 c 0,-65.88 0,-131.77 0,-197.64 0,-177.69 0,-355.37 0,-533.05 0,-263.43 0,-526.86 0,-790.28 0,-321.4 0,-642.79 0,-964.18 0,-350.79 0,-701.58 0,-1052.37 0,-356.49 0,-712.99 0,-1069.49 0,-330.14 0,-660.27 0,-990.41 0,-279.99 0,-559.97 0,-839.95 0,-201.3 0,-402.6 0,-603.9 0,-95.14 -0.48,-190.3 0,-285.441 0.02,-4.16 0,-8.32 0,-12.476 0,-27.551 58.36,-17.032 58.36,5.726 0,65.883 0,131.762 0,197.641 0,177.69 0,355.37 0,533.05 0,263.43 0,526.85 0,790.28 0,321.4 0,642.79 0,964.18 0,350.79 0,701.58 0,1052.36 0,356.5 0,713 0,1069.5 0,330.14 0,660.27 0,990.41 0,279.98 0,559.97 0,839.95 0,201.3 0,402.6 0,603.89 0,95.15 0.49,190.31 0,285.45 -0.02,4.16 0,8.32 0,12.47 0,27.56 -58.36,17.04 -58.36,-5.72 v 0"
         style="fill:#231f20;fill-opacity:1;fill-rule:nonzero;stroke:none"
         id="path20" />
    </g>
  </g>
</svg>
